<mxfile host="app.diagrams.net" modified="2023-10-13T16:08:01.195Z" agent="Mozilla/5.0 (Windows NT 10.0; Win64; x64) AppleWebKit/537.36 (KHTML, like Gecko) Chrome/117.0.0.0 Safari/537.36" version="22.0.4" etag="FGk5RP5Q-F-b9VrFtKcb" type="github">
  <diagram name="PÃ¡gina-1" id="KDeqZ2k5RDvAVMKhm-y2">
    <mxGraphModel>
      <root>
        <mxCell id="0" />
        <mxCell id="1" parent="0" />
      </root>
    </mxGraphModel>
  </diagram>
</mxfile>
